ffmpeg started on 2025-05-12 at 20:09:12
Report written to "D:\Convert\FFMetrics\reports\ssim_report-6.txt"
Log level: 32
Command line:
ffmpeg -hide_banner -nostdin -i "G:\\\xc0\xed\xe8\xec\xe5\\\xce\xed\xe3\xee\xe8\xed\xe3\xe8\\!_35_\xcb\xe5\xf2\xee_2024\\DreamCast-1\\\xcf\xee\xeb\xf3\xed\xee\xf7\xed\xfb\xe9 \xf3\xe4\xe0\xf0\\[DC] Mayonaka Punch - 03_Telegram_HEVC.mkv" -i "G:\\\xc0\xed\xe8\xec\xe5\\\xce\xed\xe3\xee\xe8\xed\xe3\xe8\\!_35_\xcb\xe5\xf2\xee_2024\\DreamCast-1\\\xcf\xee\xeb\xf3\xed\xee\xf7\xed\xfb\xe9 \xf3\xe4\xe0\xf0\\[DC] Mayonaka Punch - 03_Telegram.mp4" -lavfi "[0:v]settb=AVTB,setpts=PTS-STARTPTS,format=pix_fmts=yuv420p10,fps=24000/1001,scale=1920:1080:flags=bicubic[main];[1:v]settb=AVTB,setpts=PTS-STARTPTS,format=pix_fmts=yuv420p,fps=24000/1001,scale=1920:1080:flags=bicubic[ref];[main][ref]ssim=eof_action=endall:stats_file='D\\:/Convert/FFMetrics/logs/ssim_logfile-6.txt'" -f null -
Input #0, matroska,webm, from 'G:\Аниме\Онгоинги\!_35_Лето_2024\DreamCast-1\Полуночный удар\[DC] Mayonaka Punch - 03_Telegram_HEVC.mkv':
  Metadata:
    COMPATIBLE_BRANDS: isomiso2avc1mp41
    MAJOR_BRAND     : isom
    MINOR_VERSION   : 512
    ENCODER         : Lavf61.7.100
  Duration: 00:23:47.76, start: -0.021000, bitrate: 1364 kb/s
  Stream #0:0: Video: hevc (Main 10), yuv420p10le(tv, bt709, progressive), 1920x1080 [SAR 1:1 DAR 16:9], 23.98 fps, 23.98 tbr, 1k tbn (default)
      Metadata:
        HANDLER_NAME    : VideoHandler
        VENDOR_ID       : [0][0][0][0]
        ENCODER         : Lavc61.19.100 libx265
        BPS             : 1169123
        DURATION        : 00:23:46.591708333
        NUMBER_OF_FRAMES: 34204
        NUMBER_OF_BYTES : 208482694
        _STATISTICS_WRITING_APP: mkvpropedit v66.0.0 ('Josie') 64-bit
        _STATISTICS_WRITING_DATE_UTC: 2025-05-10 10:25:11
        _STATISTICS_TAGS: BPS DURATION NUMBER_OF_FRAMES NUMBER_OF_BYTES
  Stream #0:1: Audio: aac (LC), 48000 Hz, stereo, fltp (default)
      Metadata:
        HANDLER_NAME    : SoundHandler
        VENDOR_ID       : [0][0][0][0]
        ENCODER         : Lavc61.19.100 aac
        BPS             : 192735
        DURATION        : 00:23:47.754000000
        NUMBER_OF_FRAMES: 66927
        NUMBER_OF_BYTES : 34397394
        _STATISTICS_WRITING_APP: mkvpropedit v66.0.0 ('Josie') 64-bit
        _STATISTICS_WRITING_DATE_UTC: 2025-05-10 10:25:11
        _STATISTICS_TAGS: BPS DURATION NUMBER_OF_FRAMES NUMBER_OF_BYTES
Input #1, mov,mp4,m4a,3gp,3g2,mj2, from 'G:\Аниме\Онгоинги\!_35_Лето_2024\DreamCast-1\Полуночный удар\[DC] Mayonaka Punch - 03_Telegram.mp4':
  Metadata:
    major_brand     : isom
    minor_version   : 512
    compatible_brands: isomiso2avc1mp41
    encoder         : Lavf61.1.100
  Duration: 00:23:47.72, start: 0.000000, bitrate: 3802 kb/s
  Stream #1:0[0x1](und): Video: h264 (High) (avc1 / 0x31637661), yuv420p(tv, bt709, progressive), 1920x1080 [SAR 1:1 DAR 16:9], 3657 kb/s, 23.98 fps, 23.98 tbr, 24k tbn (default)
      Metadata:
        handler_name    : VideoHandler
        vendor_id       : [0][0][0][0]
        encoder         : Lavc61.3.100 h264_qsv
  Stream #1:1[0x2](und): Audio: aac (HE-AACv2) (mp4a / 0x6134706D), 48000 Hz, stereo, fltp, 144 kb/s (default)
      Metadata:
        handler_name    : SoundHandler
        vendor_id       : [0][0][0][0]
Stream mapping:
  Stream #0:0 (hevc) -> settb:default
  Stream #1:0 (h264) -> settb:default
  ssim:default -> Stream #0:0 (wrapped_avframe)
  Stream #0:1 -> #0:1 (aac (native) -> pcm_s16le (native))
Output #0, null, to 'pipe:':
  Metadata:
    COMPATIBLE_BRANDS: isomiso2avc1mp41
    MAJOR_BRAND     : isom
    MINOR_VERSION   : 512
    encoder         : Lavf61.7.100
  Stream #0:0: Video: wrapped_avframe, yuv420p10le(tv, bt709, progressive), 1920x1080 [SAR 1:1 DAR 16:9], q=2-31, 200 kb/s, 23.98 fps, 23.98 tbn
      Metadata:
        encoder         : Lavc61.19.100 wrapped_avframe
  Stream #0:1: Audio: pcm_s16le, 48000 Hz, stereo, s16, 1536 kb/s (default)
      Metadata:
        HANDLER_NAME    : SoundHandler
        VENDOR_ID       : [0][0][0][0]
        _STATISTICS_TAGS: BPS DURATION NUMBER_OF_FRAMES NUMBER_OF_BYTES
        BPS             : 192735
        DURATION        : 00:23:47.754000000
        NUMBER_OF_FRAMES: 66927
        NUMBER_OF_BYTES : 34397394
        _STATISTICS_WRITING_APP: mkvpropedit v66.0.0 ('Josie') 64-bit
        _STATISTICS_WRITING_DATE_UTC: 2025-05-10 10:25:11
        encoder         : Lavc61.19.100 pcm_s16le
frame=  153 fps=0.0 q=-0.0 size=N/A time=00:00:06.38 bitrate=N/A speed=12.5x    frame=  334 fps=322 q=-0.0 size=N/A time=00:00:13.93 bitrate=N/A speed=13.4x    frame=  521 fps=336 q=-0.0 size=N/A time=00:00:21.73 bitrate=N/A speed=  14x    frame=  699 fps=338 q=-0.0 size=N/A time=00:00:29.15 bitrate=N/A speed=14.1x    frame=  878 fps=341 q=-0.0 size=N/A time=00:00:36.61 bitrate=N/A speed=14.2x    frame= 1078 fps=348 q=-0.0 size=N/A time=00:00:44.96 bitrate=N/A speed=14.5x    frame= 1245 fps=344 q=-0.0 size=N/A time=00:00:51.92 bitrate=N/A speed=14.4x    frame= 1459 fps=353 q=-0.0 size=N/A time=00:01:00.85 bitrate=N/A speed=14.7x    frame= 1672 fps=360 q=-0.0 size=N/A time=00:01:09.73 bitrate=N/A speed=  15x    frame= 1887 fps=365 q=-0.0 size=N/A time=00:01:18.70 bitrate=N/A speed=15.2x    frame= 2123 fps=373 q=-0.0 size=N/A time=00:01:28.54 bitrate=N/A speed=15.6x    frame= 2280 fps=367 q=-0.0 size=N/A time=00:01:35.09 bitrate=N/A speed=15.3x    frame= 2439 fps=363 q=-0.0 size=N/A time=00:01:41.72 bitrate=N/A speed=15.1x    frame= 2620 fps=362 q=-0.0 size=N/A time=00:01:49.27 bitrate=N/A speed=15.1x    frame= 2794 fps=361 q=-0.0 size=N/A time=00:01:56.53 bitrate=N/A speed=  15x    frame= 2973 fps=360 q=-0.0 size=N/A time=00:02:03.99 bitrate=N/A speed=  15x    frame= 3140 fps=358 q=-0.0 size=N/A time=00:02:10.96 bitrate=N/A speed=14.9x    frame= 3340 fps=359 q=-0.0 size=N/A time=00:02:19.30 bitrate=N/A speed=  15x    frame= 3532 fps=360 q=-0.0 size=N/A time=00:02:27.31 bitrate=N/A speed=  15x    frame= 3729 fps=361 q=-0.0 size=N/A time=00:02:35.53 bitrate=N/A speed=15.1x    frame= 3932 fps=362 q=-0.0 size=N/A time=00:02:43.99 bitrate=N/A speed=15.1x    frame= 4102 fps=361 q=-0.0 size=N/A time=00:02:51.08 bitrate=N/A speed=15.1x    frame= 4299 fps=362 q=-0.0 size=N/A time=00:02:59.30 bitrate=N/A speed=15.1x    frame= 4508 fps=364 q=-0.0 size=N/A time=00:03:08.02 bitrate=N/A speed=15.2x    frame= 4730 fps=366 q=-0.0 size=N/A time=00:03:17.28 bitrate=N/A speed=15.3x    frame= 4938 fps=368 q=-0.0 size=N/A time=00:03:25.95 bitrate=N/A speed=15.4x    frame= 5164 fps=371 q=-0.0 size=N/A time=00:03:35.38 bitrate=N/A speed=15.5x    frame= 5253 fps=363 q=-0.0 size=N/A time=00:03:39.09 bitrate=N/A speed=15.2x    frame= 5360 fps=358 q=-0.0 size=N/A time=00:03:43.55 bitrate=N/A speed=14.9x    frame= 5573 fps=360 q=-0.0 size=N/A time=00:03:52.44 bitrate=N/A speed=  15x    frame= 5838 fps=365 q=-0.0 size=N/A time=00:04:03.49 bitrate=N/A speed=15.2x    frame= 6096 fps=369 q=-0.0 size=N/A time=00:04:14.25 bitrate=N/A speed=15.4x    frame= 6352 fps=373 q=-0.0 size=N/A time=00:04:24.93 bitrate=N/A speed=15.6x    frame= 6593 fps=376 q=-0.0 size=N/A time=00:04:34.98 bitrate=N/A speed=15.7x    frame= 6844 fps=379 q=-0.0 size=N/A time=00:04:45.45 bitrate=N/A speed=15.8x    frame= 7076 fps=381 q=-0.0 size=N/A time=00:04:55.12 bitrate=N/A speed=15.9x    frame= 7290 fps=382 q=-0.0 size=N/A time=00:05:04.05 bitrate=N/A speed=15.9x    frame= 7520 fps=384 q=-0.0 size=N/A time=00:05:13.64 bitrate=N/A speed=  16x    frame= 7747 fps=385 q=-0.0 size=N/A time=00:05:23.11 bitrate=N/A speed=16.1x    frame= 7987 fps=387 q=-0.0 size=N/A time=00:05:33.12 bitrate=N/A speed=16.1x    frame= 8224 fps=389 q=-0.0 size=N/A time=00:05:43.00 bitrate=N/A speed=16.2x    frame= 8488 fps=392 q=-0.0 size=N/A time=00:05:54.02 bitrate=N/A speed=16.3x    frame= 8748 fps=394 q=-0.0 size=N/A time=00:06:04.86 bitrate=N/A speed=16.4x    frame= 9004 fps=397 q=-0.0 size=N/A time=00:06:15.54 bitrate=N/A speed=16.5x    frame= 9194 fps=396 q=-0.0 size=N/A time=00:06:23.46 bitrate=N/A speed=16.5x    frame= 9385 fps=395 q=-0.0 size=N/A time=00:06:31.43 bitrate=N/A speed=16.5x    frame= 9593 fps=396 q=-0.0 size=N/A time=00:06:40.10 bitrate=N/A speed=16.5x    frame= 9842 fps=397 q=-0.0 size=N/A time=00:06:50.49 bitrate=N/A speed=16.6x    frame=10081 fps=399 q=-0.0 size=N/A time=00:07:00.46 bitrate=N/A speed=16.6x    frame=10316 fps=400 q=-0.0 size=N/A time=00:07:10.26 bitrate=N/A speed=16.7x    frame=10570 fps=402 q=-0.0 size=N/A time=00:07:20.85 bitrate=N/A speed=16.8x    frame=10807 fps=403 q=-0.0 size=N/A time=00:07:30.74 bitrate=N/A speed=16.8x    frame=11072 fps=405 q=-0.0 size=N/A time=00:07:41.79 bitrate=N/A speed=16.9x    frame=11316 fps=406 q=-0.0 size=N/A time=00:07:51.97 bitrate=N/A speed=16.9x    frame=11531 fps=406 q=-0.0 size=N/A time=00:08:00.93 bitrate=N/A speed=  17x    frame=11769 fps=407 q=-0.0 size=N/A time=00:08:10.86 bitrate=N/A speed=  17x    frame=12030 fps=409 q=-0.0 size=N/A time=00:08:21.75 bitrate=N/A speed=17.1x    frame=12305 fps=411 q=-0.0 size=N/A time=00:08:33.22 bitrate=N/A speed=17.2x    frame=12559 fps=413 q=-0.0 size=N/A time=00:08:43.81 bitrate=N/A speed=17.2x    frame=12818 fps=414 q=-0.0 size=N/A time=00:08:54.61 bitrate=N/A speed=17.3x    frame=13067 fps=415 q=-0.0 size=N/A time=00:09:05.00 bitrate=N/A speed=17.3x    frame=13302 fps=416 q=-0.0 size=N/A time=00:09:14.80 bitrate=N/A speed=17.3x    frame=13507 fps=416 q=-0.0 size=N/A time=00:09:23.35 bitrate=N/A speed=17.3x    frame=13741 fps=416 q=-0.0 size=N/A time=00:09:33.11 bitrate=N/A speed=17.4x    frame=13977 fps=417 q=-0.0 size=N/A time=00:09:42.95 bitrate=N/A speed=17.4x    frame=14222 fps=418 q=-0.0 size=N/A time=00:09:53.17 bitrate=N/A speed=17.4x    frame=14463 fps=418 q=-0.0 size=N/A time=00:10:03.22 bitrate=N/A speed=17.4x    frame=14640 fps=417 q=-0.0 size=N/A time=00:10:10.61 bitrate=N/A speed=17.4x    frame=14878 fps=418 q=-0.0 size=N/A time=00:10:20.53 bitrate=N/A speed=17.4x    frame=15108 fps=418 q=-0.0 size=N/A time=00:10:30.12 bitrate=N/A speed=17.4x    frame=15370 fps=420 q=-0.0 size=N/A time=00:10:41.05 bitrate=N/A speed=17.5x    frame=15594 fps=420 q=-0.0 size=N/A time=00:10:50.39 bitrate=N/A speed=17.5x    frame=15852 fps=421 q=-0.0 size=N/A time=00:11:01.16 bitrate=N/A speed=17.5x    frame=16033 fps=420 q=-0.0 size=N/A time=00:11:08.70 bitrate=N/A speed=17.5x    frame=16266 fps=420 q=-0.0 size=N/A time=00:11:18.42 bitrate=N/A speed=17.5x    frame=16499 fps=421 q=-0.0 size=N/A time=00:11:28.14 bitrate=N/A speed=17.5x    frame=16740 fps=421 q=-0.0 size=N/A time=00:11:38.19 bitrate=N/A speed=17.6x    frame=16986 fps=422 q=-0.0 size=N/A time=00:11:48.45 bitrate=N/A speed=17.6x    frame=17215 fps=422 q=-0.0 size=N/A time=00:11:58.00 bitrate=N/A speed=17.6x    frame=17437 fps=422 q=-0.0 size=N/A time=00:12:07.26 bitrate=N/A speed=17.6x    frame=17635 fps=422 q=-0.0 size=N/A time=00:12:15.52 bitrate=N/A speed=17.6x    frame=17825 fps=421 q=-0.0 size=N/A time=00:12:23.45 bitrate=N/A speed=17.6x    frame=18021 fps=421 q=-0.0 size=N/A time=00:12:31.62 bitrate=N/A speed=17.5x    frame=18235 fps=421 q=-0.0 size=N/A time=00:12:40.55 bitrate=N/A speed=17.5x    frame=18471 fps=421 q=-0.0 size=N/A time=00:12:50.39 bitrate=N/A speed=17.6x    frame=18729 fps=422 q=-0.0 size=N/A time=00:13:01.15 bitrate=N/A speed=17.6x    frame=18969 fps=423 q=-0.0 size=N/A time=00:13:11.16 bitrate=N/A speed=17.6x    frame=19184 fps=422 q=-0.0 size=N/A time=00:13:20.13 bitrate=N/A speed=17.6x    frame=19377 fps=422 q=-0.0 size=N/A time=00:13:28.18 bitrate=N/A speed=17.6x    frame=19568 fps=421 q=-0.0 size=N/A time=00:13:36.14 bitrate=N/A speed=17.6x    frame=19769 fps=421 q=-0.0 size=N/A time=00:13:44.53 bitrate=N/A speed=17.6x    frame=19990 fps=421 q=-0.0 size=N/A time=00:13:53.74 bitrate=N/A speed=17.6x    frame=20219 fps=421 q=-0.0 size=N/A time=00:14:03.30 bitrate=N/A speed=17.6x    frame=20462 fps=422 q=-0.0 size=N/A time=00:14:13.43 bitrate=N/A speed=17.6x    frame=20716 fps=423 q=-0.0 size=N/A time=00:14:24.02 bitrate=N/A speed=17.6x    frame=20984 fps=424 q=-0.0 size=N/A time=00:14:35.20 bitrate=N/A speed=17.7x    frame=21244 fps=425 q=-0.0 size=N/A time=00:14:46.05 bitrate=N/A speed=17.7x    frame=21505 fps=425 q=-0.0 size=N/A time=00:14:56.93 bitrate=N/A speed=17.7x    frame=21756 fps=426 q=-0.0 size=N/A time=00:15:07.40 bitrate=N/A speed=17.8x    frame=22022 fps=427 q=-0.0 size=N/A time=00:15:18.50 bitrate=N/A speed=17.8x    frame=22257 fps=427 q=-0.0 size=N/A time=00:15:28.30 bitrate=N/A speed=17.8x    frame=22476 fps=427 q=-0.0 size=N/A time=00:15:37.43 bitrate=N/A speed=17.8x    frame=22730 fps=428 q=-0.0 size=N/A time=00:15:48.03 bitrate=N/A speed=17.8x    frame=22947 fps=428 q=-0.0 size=N/A time=00:15:57.08 bitrate=N/A speed=17.8x    frame=23151 fps=427 q=-0.0 size=N/A time=00:16:05.58 bitrate=N/A speed=17.8x    frame=23383 fps=428 q=-0.0 size=N/A time=00:16:15.26 bitrate=N/A speed=17.8x    frame=23639 fps=428 q=-0.0 size=N/A time=00:16:25.94 bitrate=N/A speed=17.9x    frame=23892 fps=429 q=-0.0 size=N/A time=00:16:36.49 bitrate=N/A speed=17.9x    frame=24156 fps=430 q=-0.0 size=N/A time=00:16:47.50 bitrate=N/A speed=17.9x    frame=24401 fps=430 q=-0.0 size=N/A time=00:16:57.72 bitrate=N/A speed=17.9x    frame=24669 fps=431 q=-0.0 size=N/A time=00:17:08.90 bitrate=N/A speed=  18x    frame=24911 fps=431 q=-0.0 size=N/A time=00:17:18.99 bitrate=N/A speed=  18x    frame=25115 fps=431 q=-0.0 size=N/A time=00:17:27.50 bitrate=N/A speed=  18x    frame=25314 fps=430 q=-0.0 size=N/A time=00:17:35.80 bitrate=N/A speed=  18x    frame=25508 fps=430 q=-0.0 size=N/A time=00:17:43.89 bitrate=N/A speed=17.9x    frame=25732 fps=430 q=-0.0 size=N/A time=00:17:53.23 bitrate=N/A speed=17.9x    frame=25958 fps=430 q=-0.0 size=N/A time=00:18:02.66 bitrate=N/A speed=17.9x    frame=26178 fps=430 q=-0.0 size=N/A time=00:18:11.84 bitrate=N/A speed=17.9x    frame=26403 fps=430 q=-0.0 size=N/A time=00:18:21.22 bitrate=N/A speed=17.9x    frame=26615 fps=430 q=-0.0 size=N/A time=00:18:30.06 bitrate=N/A speed=17.9x    frame=26811 fps=430 q=-0.0 size=N/A time=00:18:38.24 bitrate=N/A speed=17.9x    frame=27076 fps=430 q=-0.0 size=N/A time=00:18:49.29 bitrate=N/A speed=17.9x    frame=27292 fps=430 q=-0.0 size=N/A time=00:18:58.30 bitrate=N/A speed=17.9x    frame=27524 fps=430 q=-0.0 size=N/A time=00:19:07.98 bitrate=N/A speed=17.9x    frame=27744 fps=430 q=-0.0 size=N/A time=00:19:17.19 bitrate=N/A speed=17.9x    frame=27943 fps=430 q=-0.0 size=N/A time=00:19:25.45 bitrate=N/A speed=17.9x    frame=28205 fps=431 q=-0.0 size=N/A time=00:19:36.38 bitrate=N/A speed=  18x    frame=28453 fps=431 q=-0.0 size=N/A time=00:19:46.72 bitrate=N/A speed=  18x    frame=28662 fps=431 q=-0.0 size=N/A time=00:19:55.44 bitrate=N/A speed=  18x    frame=28884 fps=431 q=-0.0 size=N/A time=00:20:04.70 bitrate=N/A speed=  18x    frame=29134 fps=431 q=-0.0 size=N/A time=00:20:15.13 bitrate=N/A speed=  18x    frame=29362 fps=431 q=-0.0 size=N/A time=00:20:24.64 bitrate=N/A speed=  18x    frame=29629 fps=432 q=-0.0 size=N/A time=00:20:35.77 bitrate=N/A speed=  18x    frame=29882 fps=432 q=-0.0 size=N/A time=00:20:46.32 bitrate=N/A speed=  18x    frame=30128 fps=433 q=-0.0 size=N/A time=00:20:56.63 bitrate=N/A speed=  18x    frame=30372 fps=433 q=-0.0 size=N/A time=00:21:06.76 bitrate=N/A speed=18.1x    frame=30648 fps=434 q=-0.0 size=N/A time=00:21:18.27 bitrate=N/A speed=18.1x    frame=30905 fps=434 q=-0.0 size=N/A time=00:21:28.99 bitrate=N/A speed=18.1x    frame=31172 fps=435 q=-0.0 size=N/A time=00:21:40.13 bitrate=N/A speed=18.1x    frame=31442 fps=435 q=-0.0 size=N/A time=00:21:51.39 bitrate=N/A speed=18.2x    frame=31655 fps=435 q=-0.0 size=N/A time=00:22:00.27 bitrate=N/A speed=18.2x    frame=31904 fps=436 q=-0.0 size=N/A time=00:22:10.66 bitrate=N/A speed=18.2x    frame=32146 fps=436 q=-0.0 size=N/A time=00:22:20.75 bitrate=N/A speed=18.2x    frame=32387 fps=436 q=-0.0 size=N/A time=00:22:30.80 bitrate=N/A speed=18.2x    frame=32597 fps=436 q=-0.0 size=N/A time=00:22:39.56 bitrate=N/A speed=18.2x    frame=32818 fps=436 q=-0.0 size=N/A time=00:22:48.78 bitrate=N/A speed=18.2x    frame=32997 fps=435 q=-0.0 size=N/A time=00:22:56.24 bitrate=N/A speed=18.1x    frame=33198 fps=435 q=-0.0 size=N/A time=00:23:04.63 bitrate=N/A speed=18.1x    frame=33409 fps=435 q=-0.0 size=N/A time=00:23:13.43 bitrate=N/A speed=18.1x    frame=33647 fps=435 q=-0.0 size=N/A time=00:23:23.36 bitrate=N/A speed=18.1x    frame=33883 fps=435 q=-0.0 size=N/A time=00:23:33.20 bitrate=N/A speed=18.1x    frame=34103 fps=435 q=-0.0 size=N/A time=00:23:42.37 bitrate=N/A speed=18.1x    [Parsed_ssim_10 @ 0000018fbbdc9a40] SSIM Y:0.993444 (21.833437) U:0.993516 (21.881679) V:0.993192 (21.669671) All:0.993414 (21.813663)
[out#0/null @ 0000018fbbda4340] video:14697KiB audio:267708KiB subtitle:0KiB other streams:0KiB global headers:0KiB muxing overhead: unknown
frame=34204 fps=435 q=-0.0 Lsize=N/A time=00:23:46.59 bitrate=N/A speed=18.1x    
